<?xml version="1.0" encoding="UTF-8"?>
<!-- Created with Inkscape (http://www.inkscape.org/) -->
<svg width="48.381mm" height="9.3705mm" version="1.1" viewBox="0 0 48.381 9.3705" xmlns="http://www.w3.org/2000/svg" xmlns:cc="http://creativecommons.org/ns#" xmlns:dc="http://purl.org/dc/elements/1.1/" xmlns:rdf="http://www.w3.org/1999/02/22-rdf-syntax-ns#" xmlns:xlink="http://www.w3.org/1999/xlink"><defs><linearGradient id="linearGradient1413"><stop stop-color="#fff" offset="0"/><stop stop-color="#808080" stop-opacity="0" offset=".32201"/><stop offset="1"/></linearGradient><radialGradient id="radialGradient3423" cx=".40179" cy="-372.52" r="5.071" gradientTransform="matrix(-3.597 3.6888 -3.919 -3.8196 -1433.6 -1796.1)" gradientUnits="userSpaceOnUse" xlink:href="#linearGradient1413"/></defs><metadata><rdf:RDF><cc:Work rdf:about=""><dc:format>image/svg+xml</dc:format><dc:type rdf:resource="http://purl.org/dc/dcmitype/StillImage"/><dc:title/></cc:Work></rdf:RDF></metadata><g transform="translate(-2.0858 -2.8336)"><ellipse cx="42.605" cy="7.5739" rx="4.6302" ry="4.6302" fill="#ff28ff" fill-opacity=".23529"/><ellipse cx="36.29" cy="7.5739" rx="4.6302" ry="4.6302" fill="#ff28ff" fill-opacity=".23529"/><g transform="matrix(.18515 0 0 .18515 32.583 74.781)"><ellipse cx="20.025" cy="-363" rx="15.005" ry="15.001" fill="#f00"/><ellipse cx="20.025" cy="-363" rx="15.005" ry="15.001" fill="url(#radialGradient3423)"/></g><g transform="matrix(.18515 0 0 .18515 38.897 74.781)"><ellipse cx="20.025" cy="-363" rx="15.005" ry="15.001" fill="#00b0ff"/><ellipse cx="20.025" cy="-363" rx="15.005" ry="15.001" fill="url(#radialGradient3423)"/></g><g fill="#c06cc0" fill-opacity=".94118"><path d="m2.0858 8.7665q0-0.49581 0.24791-0.82823 0.24791-0.33805 0.64794-0.52962 0.40566-0.1972 0.92401-0.28171 0.52398-0.09015 1.0649-0.09015 0.20847 0 0.37186 0.0056 0.16903 0.0056 0.31552 0.0169 0.15212 0.01127 0.30425 0.02817t0.33242 0.03944v-0.37749q0-0.38313-0.16903-0.63103-0.16339-0.24791-0.40566-0.38876-0.24227-0.14649-0.50708-0.20283-0.26481-0.06198-0.45074-0.06198-0.58596 0-1.0818 0.15776-0.49581 0.15776-0.92401 0.42257l-0.34932-0.58028q0.47328-0.28734 1.0592-0.46764 0.59159-0.18593 1.2959-0.18593 0.4282 0 0.8395 0.11268 0.41693 0.10705 0.74372 0.33805 0.33242 0.22537 0.52962 0.59723t0.1972 0.89021v3.4369h-0.77752v-0.87894q-0.20283 0.25354-0.46201 0.4451-0.25354 0.19156-0.53525 0.31552-0.28171 0.11832-0.56342 0.1803-0.28171 0.06761-0.53525 0.06761-1.0423 0-1.5776-0.40003-0.53525-0.40003-0.53525-1.1494zm2.1128 0.89021q0.48454 0 0.86767-0.14086 0.38876-0.14649 0.6592-0.36059 0.27044-0.2141 0.41693-0.45637 0.15212-0.24227 0.15212-0.43947v-0.49581q-0.37749-0.05634-0.72682-0.06198-0.34369-0.0056-0.59723-0.0056-0.41693 0-0.80569 0.05634-0.38313 0.05634-0.67047 0.18593-0.28735 0.12395-0.46201 0.32679-0.17466 0.20283-0.17466 0.50145 0 0.33242 0.32115 0.61413 0.32678 0.27608 1.0198 0.27608z"/><path d="m8.6834 4.9352h0.77189v3.2453q0 0.70428 0.30425 1.093 0.30988 0.38313 0.99162 0.38313 0.4282 0 0.77189-0.1972t0.58596-0.52398q0.24227-0.33242 0.36622-0.75499 0.12959-0.4282 0.12959-0.89021v-2.3551h0.77752v5.2511h-0.77752v-1.3128q-0.55215 1.4424-1.9832 1.4424-1.9382 0-1.9382-2.1354z"/><path d="m19.681 5.6733q-0.41693-0.20847-0.99162-0.20847-0.47328 0-0.84513 0.20283-0.37186 0.20283-0.63103 0.53525-0.25917 0.32678-0.40003 0.75499-0.13522 0.42257-0.13522 0.8733v1.6959h1.1888v0.6592h-3.1495v-0.6592h1.1888v-3.9327h-1.1888v-0.6592h1.9607v1.3184q0.52962-1.4424 2.0114-1.4424 0.40003 0 0.69301 0.05071 0.29861 0.05071 0.55215 0.1803z"/><path d="m21.017 8.7665q0-0.49581 0.24791-0.82823 0.24791-0.33805 0.64794-0.52962 0.40566-0.1972 0.92401-0.28171 0.52398-0.09015 1.0649-0.09015 0.20847 0 0.37186 0.0056 0.16903 0.0056 0.31552 0.0169 0.15212 0.01127 0.30425 0.02817t0.33242 0.03944v-0.37749q0-0.38313-0.16903-0.63103-0.16339-0.24791-0.40566-0.38876-0.24227-0.14649-0.50708-0.20283-0.26481-0.06198-0.45074-0.06198-0.58596 0-1.0818 0.15776-0.49581 0.15776-0.92401 0.42257l-0.34932-0.58028q0.47328-0.28734 1.0592-0.46764 0.59159-0.18593 1.2959-0.18593 0.4282 0 0.8395 0.11268 0.41693 0.10705 0.74372 0.33805 0.33242 0.22537 0.52962 0.59723t0.1972 0.89021v3.4369h-0.77752v-0.87894q-0.20283 0.25354-0.46201 0.4451-0.25354 0.19156-0.53525 0.31552-0.28171 0.11832-0.56342 0.1803-0.28171 0.06761-0.53525 0.06761-1.0423 0-1.5776-0.40003-0.53525-0.40003-0.53525-1.1494zm2.1128 0.89021q0.48454 0 0.86767-0.14086 0.38876-0.14649 0.6592-0.36059 0.27044-0.2141 0.41693-0.45637 0.15212-0.24227 0.15212-0.43947v-0.49581q-0.37749-0.05634-0.72682-0.06198-0.34369-0.0056-0.59723-0.0056-0.41693 0-0.8057 0.05634-0.38313 0.05634-0.67047 0.18593-0.28735 0.12395-0.46201 0.32679-0.17466 0.20283-0.17466 0.50145 0 0.33242 0.32115 0.61413 0.32678 0.27608 1.0198 0.27608z"/></g><path d="m32.646 8.5129q-0.09015 0.82823-0.65357 1.3184-0.55779 0.48454-1.3973 0.48454-0.46201 0-0.84513-0.15212-0.38313-0.15212-0.65357-0.42257t-0.42257-0.64794q-0.14649-0.38313-0.14649-0.83387v-2.665h-1.1888v-0.6592h1.1888v-2.1016h0.77189v2.1016h2.2368v0.6592h-2.2368v2.665q0 0.28735 0.09015 0.54089 0.09578 0.25354 0.25917 0.4451 0.16903 0.19156 0.40566 0.30425 0.23664 0.10705 0.54089 0.10705 0.57469 0 0.95782-0.35496 0.38876-0.36059 0.4451-0.92965z" fill="#800080"/><path d="m50.467 10.186h-3.1495v-0.6592h1.1888v-6.0343h-1.1888v-0.6592h1.9663v6.6935h1.1832z" fill="#800080"/></g></svg>
